<svg fill="none" height="25" viewBox="0 0 25 25" width="25" xmlns="http://www.w3.org/2000/svg" xmlns:xlink="http://www.w3.org/1999/xlink"><clipPath id="a"><rect height="25" rx="11" width="25"/></clipPath><g clip-path="url(#a)"><path d="m4.74792 7.29171 4.89687-4.89792c.20729-.20625.47921-.31042.75101-.31042.6386 0 1.0625.52605 1.0625 1.07188 0 .26042-.0958.525-.3114.74062l-3.39586 3.39584zm12.50108 0h3.0031l-4.8969-4.89792c-.2073-.20625-.4792-.31042-.751-.31042-.6386 0-1.0625.52605-1.0625 1.07188 0 .26042.0958.525.3114.74062zm3.8572 4.16669-.0166.0427-3.7479 9.3323h-9.68337l-3.74687-9.3344-.01667-.0406zm3.8938-2.08336h-25v2.08336h.669792c.556248 0 1.063538.3166 1.308328.8166l4.27188 10.6417h12.5l4.2729-10.6396c.2427-.501.7521-.8187 1.3083-.8187h.6688z" fill="#000"/></g></svg>