<svg width="18" height="20" viewBox="0 0 18 26" fill="none" xmlns="http://www.w3.org/2000/svg">
<path d="M9 5.375C6.99784 5.375 5.375 6.99784 5.375 9C5.375 11.0022 6.99784 12.625 9 12.625C11.0022 12.625 12.625 11.0022 12.625 9C12.625 6.99784 11.0022 5.375 9 5.375ZM1 8.5C1 5.46551 1.92339 3.66463 3.25334 2.59044C4.6244 1.48305 6.60674 1 9 1C11.3933 1 13.3756 1.48305 14.7467 2.59044C16.0766 3.66463 17 5.46551 17 8.5C17 14.2638 13.6408 19.2763 9.0361 24.4638C7.03992 22.015 5.13672 19.6093 3.67492 17.1188C2.04048 14.3342 1 11.5109 1 8.5Z" stroke="black" stroke-width="2"/>
</svg>
