<svg fill="none" height="20" viewBox="0 0 20 20" width="20" xmlns="http://www.w3.org/2000/svg"><path d="m10 1.66667c2.5267 0 4.5833 2.05583 4.5833 4.58333 0 1.215-.4025 2.66333-2.7066 4.6583 3.4258 1.6342 5.5016 4.3775 6.235 7.4242h-16.23837c.79584-3.49 3.3375-6.1658 6.26584-7.4075-1.33417-1.0725-2.7225-2.76917-2.7225-4.675 0-2.5275 2.05666-4.58333 4.58333-4.58333zm0-1.66667c-3.45167 0-6.25 2.7975-6.25 6.25 0 1.67667.66417 3.195 1.73833 4.3183-4.19166 2.5075-5.48833 7.0842-5.48833 9.4317h20c0-2.3258-1.3808-6.9-5.4917-9.4283 1.0767-1.12337 1.7417-2.64337 1.7417-4.3217 0-3.4525-2.7983-6.25-6.25-6.25z" fill="#000" stroke="#000"/></svg>